<svg xmlns="http://www.w3.org/2000/svg" xmlns:xlink="http://www.w3.org/1999/xlink" viewBox="224.991 162.784 213.036 186.557" width="209.04" height="182.56">
  <defs>
    <path d="M401.31 261.26l-7.01-7.01c6.3-6.31 9.81-9.81 10.51-10.51a35.234 35.234 0 0010.26-24.77c0-9.26-3.75-18.02-10.26-24.78-13.57-13.68-35.66-13.77-49.34-.21l-.21.21-10.51 10.51-7.01-7 10.51-10.51c17.52-17.52 46.05-17.52 63.82 0 17.26 17.26 17.26 46.04-.25 63.56-1.4 1.4-4.91 4.9-10.51 10.51zm-10.77-31.78c2.76-2.76 4.51-6.51 4.51-10.51 0-4.01-1.51-7.76-4.51-10.51-3-2.76-6.5-4.51-10.51-4.51-4 0-7.75 1.51-10.51 4.51l-10.51 10.51-7.01-7.01 10.51-10.51c9.73-9.74 25.5-9.76 35.25-.04l.04.04c4.76 4.76 7.26 11.01 7.26 17.77 0 6.75-2.5 13.01-7.26 17.76-.7.7-4.2 4.21-10.51 10.51l-7.26-7.5 10.51-10.51zm-14.26-14.01c2-2.01 5.25-2.01 7 0 1.01.99 1.51 2.24 1.51 3.5 0 1.25-.5 2.5-1.51 3.5-.68.7-4.1 4.21-10.26 10.51l-7.25-7.01c6.3-6.3 9.81-9.8 10.51-10.5zm-56.39-35.62c.03.02.05.05.08.07.7.71 4.2 4.21 10.51 10.51 6.46-6.3 10.05-9.8 10.76-10.51 21.45-21.49 56.26-21.52 77.76-.07l.07.07c21.28 21.52 21.28 56.31 0 78.08-1.16 1.17-7 7.01-17.51 17.52-53.16-53.15-82.69-82.68-88.6-88.58-17.77-17.52-46.29-17.52-63.82 0-17.51 17.76-17.51 46.29 0 63.8 5.89 5.91 35.34 35.44 88.35 88.59l-7 7.01c-53.01-53.15-82.47-82.68-88.36-88.59-21.49-21.44-21.52-56.25-.07-77.74.02-.03.05-.05.07-.08 21.46-21.5 56.27-21.53 77.76-.08zm-14.19 14.34c5.91 5.9 35.44 35.43 88.6 88.59l-7.01 7-88.59-88.59c-4.76-4.75-11.01-7.25-17.77-7.25s-13.01 2.5-17.77 7.25c-4.76 4.76-7.26 11.02-7.26 17.77 0 6.76 2.5 13.01 7.26 17.77 5.91 5.9 35.44 35.43 88.59 88.58l-7 6.76c-53.16-53-82.69-82.44-88.59-88.33a35.226 35.226 0 01-10.27-24.77c0-9.26 3.76-18.27 10.27-24.78a35.207 35.207 0 0124.77-10.25c9.26-.01 18.27 3.74 24.77 10.25zm74.59 102.6l-7.27 7c-53.15-53.15-82.68-82.67-88.59-88.58a4.845 4.845 0 00-6.84-.17c-.05.06-.11.11-.16.17a4.836 4.836 0 00-.17 6.84c.05.06.11.11.17.17 5.89 5.9 35.33 35.43 88.34 88.58l-7.01 7.01c-53.01-53-82.45-82.45-88.34-88.34-5.76-5.75-5.76-15.26 0-21.27 5.75-5.75 15.26-5.75 21.27 0 11.81 11.81 41.35 41.34 88.6 88.59z" id="a"/>
  </defs>
  <use xlink:href="#a" fill="#f38a8a"/>
  <use xlink:href="#a" fill-opacity="0" stroke="#000" stroke-opacity="0"/>
</svg>
