<?xml version="1.0" standalone="no"?>
<!DOCTYPE svg PUBLIC "-//W3C//DTD SVG 20010904//EN"
 "http://www.w3.org/TR/2001/REC-SVG-20010904/DTD/svg10.dtd">
<svg version="1.0" xmlns="http://www.w3.org/2000/svg"
 width="704.000000pt" height="704.000000pt" viewBox="0 0 704.000000 704.000000"
 preserveAspectRatio="xMidYMid meet">
<metadata>
Created by potrace 1.11, written by Peter Selinger 2001-2013
</metadata>
<g transform="translate(0.000000,704.000000) scale(0.100000,-0.100000)"
fill="#000000" stroke="none">
<path d="M1777 6444 c-1 -1 -38 -5 -82 -9 -44 -3 -98 -10 -120 -15 -22 -5 -53
-11 -70 -14 -16 -3 -55 -13 -85 -21 -73 -21 -72 -21 -95 -30 -107 -42 -143
-55 -153 -55 -7 0 -12 -4 -12 -10 0 -5 -7 -10 -15 -10 -8 0 -37 -13 -65 -30
-28 -16 -53 -30 -56 -30 -3 0 -42 -25 -87 -56 -294 -203 -489 -443 -632 -779
-37 -86 -88 -281 -100 -379 -3 -22 -7 -52 -10 -66 -6 -32 -7 -293 -1 -340 5
-31 8 -56 21 -140 18 -120 90 -331 160 -465 38 -74 126 -215 150 -241 5 -6 24
-28 40 -49 17 -21 47 -57 69 -79 82 -87 2723 -2733 2734 -2740 7 -4 52 33 116
98 l104 105 -1360 1363 c-1285 1289 -1431 1439 -1505 1548 -93 138 -174 337
-209 514 -25 127 -24 370 1 501 19 97 76 274 98 303 5 6 7 12 3 12 -17 0 112
214 177 295 219 269 517 442 867 500 106 18 349 13 460 -10 112 -22 236 -59
258 -77 6 -6 12 -7 12 -3 0 9 206 -100 247 -131 17 -13 34 -24 37 -24 3 0 14
-8 24 -17 11 -10 37 -32 58 -50 22 -17 657 -648 1411 -1402 754 -754 1373
-1371 1375 -1371 11 0 602 600 646 656 189 238 326 556 357 829 4 33 9 71 11
85 7 36 7 233 0 310 -7 82 -24 179 -43 250 -8 30 -16 62 -18 70 -2 8 -4 16 -5
18 -3 3 -6 13 -15 50 -4 18 -12 35 -16 38 -5 3 -9 13 -9 23 0 24 -114 253
-156 312 -19 27 -34 53 -34 58 0 5 -3 11 -7 13 -5 2 -35 37 -68 78 -162 204
-416 393 -661 491 -43 17 -83 32 -89 34 -5 1 -17 5 -25 8 -57 24 -251 65 -345
74 -87 7 -336 9 -341 2 -2 -4 -23 -7 -47 -7 -24 -1 -56 -6 -72 -12 -15 -6 -30
-9 -32 -6 -2 2 -36 -5 -76 -16 -40 -10 -83 -21 -96 -24 -49 -10 -208 -76 -291
-121 -193 -103 -271 -165 -529 -418 -101 -99 -189 -185 -196 -192 -9 -9 -46
22 -166 144 -189 189 -262 259 -314 298 -22 16 -42 32 -45 35 -21 21 -192 124
-260 157 -101 48 -258 106 -320 117 -14 2 -58 12 -98 20 -40 9 -103 19 -140
22 -66 6 -260 12 -265 8z"/>
<path d="M1749 5826 c-2 -2 -26 -7 -54 -10 -199 -26 -425 -140 -580 -293 -153
-151 -249 -325 -300 -548 -23 -98 -23 -388 0 -425 2 -4 7 -21 10 -39 16 -94
88 -255 158 -355 62 -88 61 -87 294 -320 117 -116 734 -732 1373 -1369 l1160
-1158 106 104 106 104 -1365 1367 c-752 751 -1384 1390 -1406 1418 -42 57
-103 174 -116 223 -24 91 -27 115 -30 225 -3 100 11 202 36 268 6 15 10 28 9
30 -2 5 65 127 77 140 7 7 13 17 13 21 0 13 135 146 183 179 59 41 176 95 242
112 78 19 114 24 195 23 172 0 303 -40 440 -133 30 -21 670 -652 1431 -1413
l1376 -1376 107 107 107 107 -1386 1385 c-1121 1121 -1402 1396 -1470 1443
-46 31 -91 57 -100 57 -8 0 -15 4 -15 8 0 15 -194 86 -269 98 -18 3 -43 8 -55
11 -26 6 -271 14 -277 9z"/>
<path d="M1748 5205 c-18 -6 -37 -12 -43 -14 -40 -13 -65 -27 -110 -58 -27
-20 -53 -42 -58 -49 -4 -7 -14 -19 -22 -27 -31 -32 -73 -117 -90 -183 -30
-119 -9 -253 56 -355 25 -39 2742 -2769 2756 -2769 2 0 52 47 110 105 l105
104 -587 588 c-322 323 -932 935 -1354 1358 -423 424 -775 784 -783 800 -20
42 -21 90 -2 127 21 41 32 52 80 76 35 17 44 18 88 7 46 -12 107 -71 1410
-1374 748 -748 1364 -1361 1368 -1361 4 0 56 47 114 103 l107 104 -1374 1374
c-1248 1248 -1380 1377 -1439 1406 -102 51 -246 68 -332 38z"/>
</g>
</svg>
